<svg xmlns:xlink="http://www.w3.org/1999/xlink" xmlns="http://www.w3.org/2000/svg" class="tiktok-icon" viewBox="0 0 32 32" focusable="false" aria-label="TikTok" width="32"  height="32" ><path d="M24.8199768,5.93076326 C21.9859162,5.93076326 19.6802292,3.62507632 19.6802292,0.791015625 C19.6802292,0.354103102 19.3261261,0 18.8892135,0 L14.6527481,0 C14.2160416,0 13.8617325,0.354103102 13.8617325,0.791015625 L13.8617325,18.1599884 C13.8617325,19.8260651 12.5060882,21.1815033 10.8400116,21.1815033 C9.17393491,21.1815033 7.81849673,19.8260651 7.81849673,18.1599884 C7.81849673,16.4937057 9.17393491,15.1382675 10.8400116,15.1382675 C11.2769241,15.1382675 11.6310272,14.7841644 11.6310272,14.3472519 L11.6310272,10.1107865 C11.6310272,9.67407991 11.2769241,9.31977083 10.8400116,9.31977083 C5.96558381,9.31977083 2,13.2855606 2,18.1599884 C2,23.0344162 5.96558381,27 10.8400116,27 C15.7144394,27 19.6802292,23.0344162 19.6802292,18.1599884 L19.6802292,10.4716873 C21.2544327,11.3111115 23.0064087,11.7492599 24.8199768,11.7492599 C25.2568893,11.7492599 25.6109924,11.3951569 25.6109924,10.9582443 L25.6109924,6.72177888 C25.6109924,6.28507234 25.2568893,5.93076326 24.8199768,5.93076326 Z" fill="#FFFFFF"></path></svg>