<svg xmlns="http://www.w3.org/2000/svg" class="tiktok-icon" aria-label="TikTok" width="32" height="32"><path d="M24.82 5.93A5.146 5.146 0 0119.68.792.791.791 0 0018.89 0h-4.237a.791.791 0 00-.791.791V18.16a3.025 3.025 0 01-3.022 3.022 3.025 3.025 0 01-3.022-3.022 3.025 3.025 0 013.022-3.022.791.791 0 00.791-.79V10.11a.791.791 0 00-.791-.791C5.966 9.32 2 13.286 2 18.16S5.966 27 10.84 27s8.84-3.966 8.84-8.84v-7.688a10.88 10.88 0 005.14 1.277.791.791 0 00.791-.79V6.721a.791.791 0 00-.791-.791z" fill="#FFF"/></svg>